<svg xmlns="http://www.w3.org/2000/svg" width="36" height="36" viewBox="0 0 36 36"><defs><style>.a{fill:rgba(0,0,0,0);}.b{fill:#868686;}</style></defs><rect class="a" width="36" height="36"/><g transform="translate(8 9)"><path class="b" d="M9.908,17.448a1.994,1.994,0,0,1-.96-.248l-5-2.73a2,2,0,0,1-1.039-1.76V9.9l6.04,3.3a1.988,1.988,0,0,0,1.92,0l6.04-3.3v2.81a2,2,0,0,1-1.04,1.76l-5,2.73A2,2,0,0,1,9.908,17.448Zm10-3.728a1,1,0,0,1-1-1V6.81L10.868,11.2a1.983,1.983,0,0,1-1.92,0L.518,6.6a1.006,1.006,0,0,1,0-1.759L8.948.24a2.037,2.037,0,0,1,1.92,0l9.52,5.189a1,1,0,0,1,.52.88v6.41A1,1,0,0,1,19.907,13.72Z"/></g></svg>