<svg xmlns="http://www.w3.org/2000/svg" xmlns:xlink="http://www.w3.org/1999/xlink" width="36" height="36" viewBox="0 0 36 36"><defs><style>.a{fill:none;}.b{fill:rgba(0,0,0,0);}.c{fill:#fff;opacity:0;}.d{clip-path:url(#a);}.e{fill:#868686;}</style><clipPath id="a"><path class="a" d="M10,20A10,10,0,1,1,20,10,10.011,10.011,0,0,1,10,20ZM10,2a8,8,0,1,0,8,8A8.009,8.009,0,0,0,10,2ZM8,14.5v-9L14,10,8,14.5Z"/></clipPath></defs><rect class="b" width="36" height="36"/><g transform="translate(6 6)"><rect class="c" width="24" height="24"/><g transform="translate(2 2)"><path class="a" d="M10,20A10,10,0,1,1,20,10,10.011,10.011,0,0,1,10,20ZM10,2a8,8,0,1,0,8,8A8.009,8.009,0,0,0,10,2ZM8,14.5v-9L14,10,8,14.5Z"/><g class="d"><g transform="translate(-2 -2)"><rect class="b" width="24" height="24"/><rect class="e" width="24" height="24"/></g></g></g></g></svg>