<svg xmlns="http://www.w3.org/2000/svg" width="36" height="36" viewBox="0 0 36 36"><defs><style>.a{fill:rgba(0,0,0,0);}.b{fill:#fff;opacity:0;}.c{fill:#868686;}</style></defs><rect class="a" width="36" height="36"/><g transform="translate(6 6)"><rect class="b" width="24" height="24"/><g transform="translate(2 2)"><path class="c" d="M7.07,19.2A10,10,0,0,1,7.07.075,1.5,1.5,0,0,1,9,1.515v.01a1.518,1.518,0,0,1-1.09,1.44,6.985,6.985,0,0,0,0,13.34,1.509,1.509,0,0,1-.4,2.958A1.463,1.463,0,0,1,7.07,19.2ZM11,17.765v-.041a1.485,1.485,0,0,1,1.07-1.409A7.015,7.015,0,0,0,16.68,11.7a1.51,1.51,0,0,1,1.42-1.08h.05a1.483,1.483,0,0,1,1.419,1.911,10.046,10.046,0,0,1-6.66,6.66,1.468,1.468,0,0,1-.43.065A1.491,1.491,0,0,1,11,17.765Zm7.09-9.131a1.486,1.486,0,0,1-1.41-1.07,7.036,7.036,0,0,0-4.61-4.61A1.488,1.488,0,0,1,11,1.534v-.04A1.481,1.481,0,0,1,12.9.065a10.046,10.046,0,0,1,6.66,6.66,1.484,1.484,0,0,1-1.43,1.91Z"/></g></g></svg>