<svg xmlns="http://www.w3.org/2000/svg" width="24" height="24" viewBox="0 0 24 24"><defs><style>.a,.b{fill:#7f7f7f;}.a{opacity:0;}</style></defs><path class="a" d="M0,0H24V24H0Z"/><circle class="b" cx="4" cy="4" r="4" transform="translate(5.118 5)"/><path class="b" d="M15,18.452H1a1,1,0,0,1-1-1v-1c0-.82.52-2.005,3-3a14.841,14.841,0,0,1,5-1,14.841,14.841,0,0,1,5,1c2.479.993,3,2.178,3,3v1A1,1,0,0,1,15,18.452ZM19.021,12.9a1.168,1.168,0,0,1-.832-.342l-.03-.031a1.133,1.133,0,0,1-.14-1.46,8.145,8.145,0,0,0,1.5-4.663A7.773,7.773,0,0,0,18.05,1.822a1.143,1.143,0,0,1,.13-1.48A1.171,1.171,0,0,1,19.016,0a1.136,1.136,0,0,1,.914.442,9.771,9.771,0,0,1,0,12.019A1.129,1.129,0,0,1,19.021,12.9ZM15.636,9.439a1.244,1.244,0,0,1-.886-.367l-.03-.031a1.236,1.236,0,0,1-.25-1.36,3.268,3.268,0,0,0,0-2.46,1.268,1.268,0,0,1,.229-1.36l.01-.01a1.242,1.242,0,0,1,.884-.367,1.213,1.213,0,0,1,1.086.657A4.988,4.988,0,0,1,16.7,8.8,1.193,1.193,0,0,1,15.636,9.439Z" transform="translate(1 2.548)"/></svg>